<?xml version="1.0" encoding="utf-8"?>
<!-- Generator: Adobe Illustrator 24.0.2, SVG Export Plug-In . SVG Version: 6.00 Build 0)  -->
<svg version="1.1" id="Layer_1" xmlns="http://www.w3.org/2000/svg" xmlns:xlink="http://www.w3.org/1999/xlink" x="0px" y="0px"
	 viewBox="0 0 2000 2000" style="enable-background:new 0 0 2000 2000;" xml:space="preserve">
<style type="text/css">
	.st0{fill:#FFFFFF;}
</style>
<path class="st0" d="M1000,0C447.72,0,0,447.72,0,1000s447.72,1000,1000,1000s1000-447.72,1000-1000S1552.28,0,1000,0z M999,1875.88
	c-483.25,0-875-391.75-875-875s391.75-875,875-875s875,391.75,875,875S1482.25,1875.88,999,1875.88z"/>
<path class="st0" d="M604.68,1184.11l-25.63-67.38H360.78l-25.63,68.85c-10.01,26.86-18.56,44.99-25.63,54.38
	c-7.08,9.4-18.68,14.1-34.79,14.1c-13.68,0-25.76-5.01-36.25-15.01c-10.5-10.01-15.75-21.36-15.75-34.06
	c0-7.32,1.22-14.89,3.66-22.71c2.44-7.81,6.47-18.68,12.08-32.59l137.33-348.63c3.9-10.01,8.61-22.03,14.1-36.07
	c5.49-14.04,11.35-25.69,17.58-34.97c6.23-9.28,14.4-16.78,24.54-22.52c10.13-5.73,22.64-8.61,37.54-8.61
	c15.13,0,27.77,2.87,37.9,8.61c10.13,5.74,18.31,13.13,24.54,22.16c6.23,9.04,11.47,18.74,15.75,29.11
	c4.27,10.38,9.7,24.23,16.3,41.57l140.26,346.44c10.99,26.37,16.48,45.54,16.48,57.5c0,12.45-5.19,23.87-15.56,34.24
	c-10.38,10.37-22.89,15.56-37.54,15.56c-8.55,0-15.87-1.53-21.97-4.58c-6.11-3.06-11.23-7.2-15.38-12.45
	c-4.15-5.25-8.61-13.3-13.37-24.17C612.18,1201.99,608.09,1192.41,604.68,1184.11z M389.34,1035.06h160.4L468.81,813.5
	L389.34,1035.06z"/>
<path class="st0" d="M1763.73,1083.77c0,32.47-8.37,61.65-25.09,87.52c-16.72,25.88-41.2,46.14-73.42,60.79
	s-70.44,21.97-114.62,21.97c-52.98,0-96.68-10.01-131.1-30.03c-24.42-14.4-44.25-33.63-59.51-57.68
	c-15.26-24.04-22.89-47.42-22.89-70.13c0-13.18,4.58-24.47,13.73-33.88c9.15-9.4,20.81-14.1,34.97-14.1
	c11.47,0,21.18,3.66,29.11,10.99c7.93,7.32,14.71,18.19,20.33,32.59c6.83,17.09,14.22,31.37,22.16,42.85
	c7.93,11.48,19.1,20.94,33.51,28.38c14.4,7.45,33.33,11.17,56.76,11.17c32.23,0,58.41-7.51,78.55-22.52
	c20.14-15.01,30.21-33.75,30.21-56.21c0-17.82-5.44-32.28-16.3-43.4c-10.87-11.11-24.9-19.59-42.12-25.45
	c-17.21-5.86-40.23-12.08-69.03-18.68c-38.58-9.03-70.86-19.59-96.86-31.68c-26-12.08-46.63-28.56-61.89-49.44
	c-15.26-20.87-22.89-46.81-22.89-77.82c0-29.54,8.06-55.78,24.17-78.74c16.11-22.95,39.42-40.59,69.95-52.92
	c30.52-12.33,66.4-18.49,107.67-18.49c32.96,0,61.46,4.09,85.51,12.27c24.04,8.18,44,19.04,59.88,32.59
	c15.87,13.55,27.47,27.78,34.79,42.66c7.32,14.89,10.99,29.42,10.99,43.58c0,12.94-4.58,24.6-13.73,34.97
	c-9.16,10.38-20.57,15.56-34.24,15.56c-12.45,0-21.92-3.11-28.38-9.34c-6.47-6.23-13.49-16.42-21.06-30.58
	c-9.77-20.26-21.49-36.07-35.16-47.42c-13.68-11.35-35.65-17.03-65.92-17.03c-28.08,0-50.72,6.17-67.93,18.49
	c-17.21,12.33-25.82,27.16-25.82,44.5c0,10.75,2.93,20.02,8.79,27.83c5.86,7.82,13.92,14.53,24.17,20.14
	c10.25,5.62,20.63,10.01,31.13,13.18c10.49,3.18,27.83,7.82,52,13.92c30.27,7.08,57.68,14.89,82.21,23.44
	c24.54,8.55,45.41,18.92,62.62,31.13c17.21,12.21,30.64,27.65,40.28,46.33C1758.91,1033.78,1763.73,1056.67,1763.73,1083.77z"/>
<rect x="943.75" y="76.26" transform="matrix(0.7071 -0.7071 0.7071 0.7071 -416.5953 1005.75)" class="st0" width="124" height="1858.98"/>
<g>
	<path class="st0" d="M917.12,794.09h64.75c33.2,0,61.52,3.6,84.96,10.8c23.44,7.2,43.15,23.99,59.14,50.35
		c15.99,26.37,23.99,66.04,23.99,119.02c0,17.78-1.03,34.31-3.06,49.6l89.43,89.43c6.52-15.5,11.67-32.18,15.44-50.04
		c5.61-26.61,8.42-56.03,8.42-88.26c0-97.65-27.96-170.41-83.86-218.26c-21.49-18.8-45.41-31.61-71.78-38.45
		c-26.37-6.83-57.99-10.25-94.85-10.25H867.98c-12.66,0-23.42,1.55-32.31,4.61L917.12,794.09z"/>
	<path class="st0" d="M1034.06,1157.09c-10.18,0.92-24.03,1.38-41.57,1.38h-82.4v-125.35L801.33,924.36v244
		c0,17.34,1.52,31.44,4.58,42.3c3.05,10.87,9.58,19.29,19.59,25.27c10.01,5.99,24.9,8.97,44.68,8.97h141.72
		c24.66,0,46.81-1.58,66.47-4.76c10.84-1.75,21.28-4.23,31.34-7.4L1034.06,1157.09z"/>
</g>
</svg>
