<?xml version="1.0" encoding="utf-8"?>
<!-- Generator: Adobe Illustrator 24.0.2, SVG Export Plug-In . SVG Version: 6.00 Build 0)  -->
<svg version="1.1" id="Layer_1" xmlns="http://www.w3.org/2000/svg" xmlns:xlink="http://www.w3.org/1999/xlink" x="0px" y="0px"
	 viewBox="0 0 2000 2000" style="enable-background:new 0 0 2000 2000;" xml:space="preserve">
<style type="text/css">
	.st0{fill:#333333;}
</style>
<path class="st0" d="M1000,0C447.7,0,0,447.7,0,1000s447.7,1000,1000,1000s1000-447.7,1000-1000S1552.3,0,1000,0z M999,1875.9
	c-483.3,0-875-391.8-875-875s391.8-875,875-875s875,391.8,875,875S1482.3,1875.9,999,1875.9z"/>
<g>
	<path class="st0" d="M604.7,1184.1l-25.6-67.4H360.8l-25.6,68.8c-10,26.9-18.6,45-25.6,54.4c-7.1,9.4-18.7,14.1-34.8,14.1
		c-13.7,0-25.8-5-36.3-15c-10.5-10-15.8-21.4-15.8-34.1c0-7.3,1.2-14.9,3.7-22.7c2.4-7.8,6.5-18.7,12.1-32.6l137.3-348.6
		c3.9-10,8.6-22,14.1-36.1c5.5-14,11.4-25.7,17.6-35c6.2-9.3,14.4-16.8,24.5-22.5c10.1-5.7,22.6-8.6,37.5-8.6
		c15.1,0,27.8,2.9,37.9,8.6c10.1,5.7,18.3,13.1,24.5,22.2c6.2,9,11.5,18.7,15.8,29.1c4.3,10.4,9.7,24.2,16.3,41.6l140.3,346.4
		c11,26.4,16.5,45.5,16.5,57.5c0,12.4-5.2,23.9-15.6,34.2c-10.4,10.4-22.9,15.6-37.5,15.6c-8.5,0-15.9-1.5-22-4.6
		c-6.1-3.1-11.2-7.2-15.4-12.4s-8.6-13.3-13.4-24.2C612.2,1202,608.1,1192.4,604.7,1184.1z M389.3,1035.1h160.4l-80.9-221.6
		L389.3,1035.1z"/>
	<path class="st0" d="M868,708h141.7c36.9,0,68.5,3.4,94.8,10.3c26.4,6.8,50.3,19.7,71.8,38.5c55.9,47.8,83.9,120.6,83.9,218.3
		c0,32.2-2.8,61.6-8.4,88.3c-5.6,26.6-14.3,50.6-26,72c-11.7,21.4-26.7,40.5-45,57.3c-14.4,12.9-30.2,23.3-47.2,31.1
		c-17.1,7.8-35.5,13.3-55.1,16.5c-19.7,3.2-41.8,4.8-66.5,4.8H870.2c-19.8,0-34.7-3-44.7-9s-16.5-14.4-19.6-25.3
		c-3.1-10.9-4.6-25-4.6-42.3V774.7c0-23.4,5.3-40.4,15.8-50.9C827.6,713.3,844.5,708,868,708z M910.1,794.1v364.4h82.4
		c18.1,0,32.2-0.5,42.5-1.5s20.9-3.4,31.9-7.3c11-3.9,20.5-9.4,28.6-16.5c36.4-30.8,54.6-83.7,54.6-158.9c0-53-8-92.7-24-119
		s-35.7-43.2-59.1-50.3c-23.4-7.2-51.8-10.8-85-10.8L910.1,794.1L910.1,794.1z"/>
	<path class="st0" d="M1763.7,1083.8c0,32.5-8.4,61.7-25.1,87.5c-16.7,25.9-41.2,46.1-73.4,60.8s-70.4,22-114.6,22
		c-53,0-96.7-10-131.1-30c-24.4-14.4-44.3-33.6-59.5-57.7c-15.3-24-22.9-47.4-22.9-70.1c0-13.2,4.6-24.5,13.7-33.9
		c9.2-9.4,20.8-14.1,35-14.1c11.5,0,21.2,3.7,29.1,11c7.9,7.3,14.7,18.2,20.3,32.6c6.8,17.1,14.2,31.4,22.2,42.8
		c7.9,11.5,19.1,20.9,33.5,28.4c14.4,7.4,33.3,11.2,56.8,11.2c32.2,0,58.4-7.5,78.6-22.5s30.2-33.8,30.2-56.2
		c0-17.8-5.4-32.3-16.3-43.4c-10.9-11.1-24.9-19.6-42.1-25.4c-17.2-5.9-40.2-12.1-69-18.7c-38.6-9-70.9-19.6-96.9-31.7
		c-26-12.1-46.6-28.6-61.9-49.4c-15.3-20.9-22.9-46.8-22.9-77.8c0-29.5,8.1-55.8,24.2-78.7c16.1-23,39.4-40.6,69.9-52.9
		c30.5-12.3,66.4-18.5,107.7-18.5c33,0,61.5,4.1,85.5,12.3c24,8.2,44,19,59.9,32.6c15.9,13.5,27.5,27.8,34.8,42.7
		c7.3,14.9,11,29.4,11,43.6c0,12.9-4.6,24.6-13.7,35c-9.2,10.4-20.6,15.6-34.2,15.6c-12.4,0-21.9-3.1-28.4-9.3
		c-6.5-6.2-13.5-16.4-21.1-30.6c-9.8-20.3-21.5-36.1-35.2-47.4c-13.7-11.3-35.7-17-65.9-17c-28.1,0-50.7,6.2-67.9,18.5
		c-17.2,12.3-25.8,27.2-25.8,44.5c0,10.8,2.9,20,8.8,27.8c5.9,7.8,13.9,14.5,24.2,20.1c10.3,5.6,20.6,10,31.1,13.2
		c10.5,3.2,27.8,7.8,52,13.9c30.3,7.1,57.7,14.9,82.2,23.4c24.5,8.5,45.4,18.9,62.6,31.1s30.6,27.7,40.3,46.3
		C1758.9,1033.8,1763.7,1056.7,1763.7,1083.8z"/>
</g>
</svg>
