<?xml version="1.0" encoding="utf-8"?>
<!-- Generator: Adobe Illustrator 24.0.2, SVG Export Plug-In . SVG Version: 6.00 Build 0)  -->
<svg version="1.1" id="Layer_1" xmlns="http://www.w3.org/2000/svg" xmlns:xlink="http://www.w3.org/1999/xlink" x="0px" y="0px"
	 viewBox="0 0 218 40" style="enable-background:new 0 0 218 40;" xml:space="preserve">
<style type="text/css">
	.st0{fill:#333333;}
	.st1{fill:#E6E6E6;}
	.st2{clip-path:url(#SVGID_2_);fill:#1E88E5;}
	.st3{clip-path:url(#SVGID_2_);fill:#90CAF9;}
	.st4{clip-path:url(#SVGID_2_);fill:#42A5F5;}
</style>
<rect class="st0" width="218" height="40"/>
<g>
	<path class="st1" d="M75.24,8.29c1.56-0.26,3.6-0.48,6.19-0.48c3.19,0,5.52,0.74,7.01,2.06c1.37,1.18,2.19,2.98,2.19,5.19
		c0,2.25-0.67,4.01-1.93,5.3c-1.71,1.8-4.49,2.72-7.64,2.72c-0.96,0-1.85-0.04-2.6-0.22v9.94h-3.23V8.29z M78.46,20.25
		c0.7,0.18,1.59,0.26,2.67,0.26c3.89,0,6.27-1.88,6.27-5.3c0-3.28-2.34-4.86-5.9-4.86c-1.41,0-2.48,0.11-3.04,0.26V20.25z"/>
	<path class="st1" d="M103.83,32.8l-0.26-2.25h-0.11c-1,1.4-2.93,2.65-5.49,2.65c-3.63,0-5.49-2.54-5.49-5.12
		c0-4.31,3.86-6.66,10.79-6.63V21.1c0-1.47-0.41-4.12-4.08-4.12c-1.67,0-3.41,0.52-4.67,1.32l-0.74-2.13
		c1.48-0.96,3.63-1.58,5.9-1.58c5.49,0,6.82,3.72,6.82,7.29v6.66c0,1.55,0.07,3.05,0.3,4.27H103.83z M103.34,23.71
		c-3.56-0.07-7.6,0.55-7.6,4.01c0,2.1,1.41,3.09,3.08,3.09c2.34,0,3.82-1.47,4.34-2.98c0.11-0.33,0.19-0.7,0.19-1.03V23.71z"/>
	<path class="st1" d="M111.76,20.54c0-2.1-0.04-3.9-0.15-5.56h2.86l0.11,3.5h0.15c0.82-2.39,2.78-3.9,4.97-3.9
		c0.37,0,0.63,0.04,0.93,0.11v3.05c-0.33-0.07-0.67-0.11-1.11-0.11c-2.3,0-3.93,1.73-4.38,4.16c-0.07,0.44-0.15,0.96-0.15,1.51v9.5
		h-3.23V20.54z"/>
	<path class="st1" d="M133.64,32.8l-0.26-2.25h-0.11c-1,1.4-2.93,2.65-5.49,2.65c-3.63,0-5.49-2.54-5.49-5.12
		c0-4.31,3.86-6.66,10.79-6.63V21.1c0-1.47-0.41-4.12-4.08-4.12c-1.67,0-3.41,0.52-4.67,1.32l-0.74-2.13
		c1.48-0.96,3.63-1.58,5.9-1.58c5.49,0,6.82,3.72,6.82,7.29v6.66c0,1.55,0.07,3.05,0.3,4.27H133.64z M133.15,23.71
		c-3.56-0.07-7.6,0.55-7.6,4.01c0,2.1,1.41,3.09,3.08,3.09c2.34,0,3.82-1.47,4.34-2.98c0.11-0.33,0.19-0.7,0.19-1.03V23.71z"/>
	<path class="st1" d="M157.07,6.67V28.2c0,1.58,0.04,3.39,0.15,4.6h-2.93l-0.15-3.09h-0.07c-1,1.99-3.19,3.5-6.12,3.5
		c-4.34,0-7.67-3.64-7.67-9.05c-0.04-5.92,3.67-9.57,8.05-9.57c2.74,0,4.6,1.29,5.41,2.72h0.07V6.67H157.07z M153.81,22.24
		c0-0.4-0.04-0.96-0.15-1.36c-0.48-2.06-2.26-3.75-4.71-3.75c-3.37,0-5.38,2.94-5.38,6.88c0,3.61,1.78,6.59,5.3,6.59
		c2.19,0,4.19-1.44,4.78-3.86c0.11-0.44,0.15-0.88,0.15-1.4V22.24z"/>
	<path class="st1" d="M178.72,23.75c0,6.59-4.6,9.46-8.94,9.46c-4.86,0-8.6-3.53-8.6-9.17c0-5.96,3.93-9.46,8.9-9.46
		C175.24,14.58,178.72,18.3,178.72,23.75z M164.48,23.93c0,3.9,2.26,6.85,5.45,6.85c3.12,0,5.45-2.91,5.45-6.92
		c0-3.02-1.52-6.85-5.38-6.85C166.15,17.01,164.48,20.54,164.48,23.93z"/>
	<path class="st1" d="M183.84,14.99l2.56,3.83c0.67,0.99,1.22,1.91,1.82,2.91h0.11c0.59-1.07,1.19-1.99,1.78-2.94l2.52-3.79h3.52
		l-6.12,8.61l6.3,9.2h-3.71l-2.63-4.01c-0.7-1.03-1.3-2.02-1.93-3.09h-0.07c-0.59,1.07-1.22,2.02-1.89,3.09l-2.6,4.01h-3.6
		l6.38-9.09l-6.08-8.72H183.84z"/>
</g>
<g>
	<g>
		<defs>
			<rect id="SVGID_1_" x="27.22" y="4" width="32" height="32"/>
		</defs>
		<clipPath id="SVGID_2_">
			<use xlink:href="#SVGID_1_"  style="overflow:visible;"/>
		</clipPath>
		<polygon class="st2" points="47.35,9.71 33.41,33.86 29.32,33.86 29.29,33.85 43.23,9.71 		"/>
		<polygon class="st3" points="53.06,33.86 39.12,9.71 41.16,6.17 41.19,6.15 55.13,30.29 		"/>
		<polygon class="st2" points="31.32,30.28 29.28,33.82 29.28,33.85 57.15,33.85 59.21,30.28 		"/>
		<polygon class="st4" points="41.19,6.14 41.16,6.15 55.09,30.29 59.22,30.29 45.28,6.14 		"/>
		<polygon class="st4" points="29.29,26.71 29.29,26.74 31.33,30.28 59.22,30.28 57.16,26.71 		"/>
		<polygon class="st3" points="27.22,30.29 29.27,33.83 29.29,33.85 43.23,9.71 41.17,6.14 		"/>
		<polygon class="st2" points="41.92,19.11 33.98,32.87 30.33,32.1 30.3,32.09 38.23,18.34 		"/>
	</g>
</g>
</svg>
