<?xml version="1.0" encoding="utf-8"?>
<!-- Generator: Adobe Illustrator 24.0.2, SVG Export Plug-In . SVG Version: 6.00 Build 0)  -->
<svg version="1.1" id="bold" xmlns="http://www.w3.org/2000/svg" xmlns:xlink="http://www.w3.org/1999/xlink" x="0px" y="0px"
	 viewBox="0 0 512 512" style="enable-background:new 0 0 512 512;" xml:space="preserve">
<style type="text/css">
	.st0{fill:#FFFFFF;}
</style>
<g>
	<path class="st0" d="M436.91,102.74c-3.86,0-7.7-1.37-10.77-4.18C379.05,55.64,318.63,32,256,32S132.95,55.64,85.87,98.58
		c-6.55,5.95-16.66,5.46-22.61-1.05c-5.95-6.53-5.48-16.66,1.05-22.61C117.31,26.6,185.39,0,256,0s138.69,26.6,191.7,74.92
		c6.53,5.95,7,16.06,1.05,22.61C445.59,100.99,441.26,102.74,436.91,102.74L436.91,102.74z"/>
</g>
<g>
	<path class="st0" d="M464,207.3c-5.14,0-10.22-2.47-13.29-7.08C406.29,134.08,333.5,94.59,256,94.59S105.71,134.08,61.29,200.21
		c-4.93,7.36-14.89,9.32-22.21,4.37c-7.34-4.93-9.3-14.87-4.37-22.21C85.08,107.39,167.81,62.61,256,62.61
		s170.92,44.78,221.29,119.79c4.93,7.34,2.99,17.28-4.37,22.21C470.19,206.42,467.09,207.3,464,207.3L464,207.3z"/>
</g>
<g>
	<path class="st0" d="M205.46,512c-4.12,0-8.23-1.58-11.37-4.74c-3.5-3.52-85.48-87.21-85.48-167.79
		c0-83.63,66.11-151.66,147.39-151.66s147.39,68.03,147.39,151.66c0,8.83-7.17,16-16,16c-8.83,0-16-7.17-16-16
		c0-65.98-51.75-119.66-115.39-119.66s-115.39,53.67-115.39,119.66c0,67.56,75.46,144.49,76.22,145.26
		c6.23,6.27,6.19,16.41-0.11,22.63C213.61,510.46,209.54,512,205.46,512z"/>
</g>
<g>
	<path class="st0" d="M306.54,512c-38.49,0-127.7-73.22-136.34-154.75c-3.05-28.82,6.12-58.3,24.51-78.87
		c16-17.88,37.61-27.8,60.84-27.93H256c22.66,0,44.07,8.9,60.37,25.09c17.02,16.92,26.39,39.64,26.39,63.96v10.43
		c0,25.71,20.01,46.61,44.63,46.61s44.65-20.91,44.65-46.61v-3.65c0-99.63-72.17-182.51-164.31-188.65
		c-48.04-3.26-94.12,13.33-129.69,46.57c-36.91,34.52-58.07,83.84-58.07,135.3c0,42.33,14.34,83.56,40.36,116.12
		c5.5,6.91,4.39,16.96-2.52,22.49c-6.89,5.53-16.96,4.39-22.51-2.52c-30.53-38.21-47.36-86.55-47.36-136.11
		c0-60.29,24.87-118.12,68.2-158.66c42.09-39.38,96.66-58.97,153.66-55.15c108.89,7.27,194.2,104.17,194.2,220.59v3.65
		c0,43.35-34.39,78.61-76.65,78.61s-76.63-35.26-76.63-78.61v-10.43c0-15.74-6.02-30.38-16.94-41.26
		c-10.24-10.2-23.66-15.79-37.8-15.79c-0.11,0-0.19,0-0.3,0c-18.03,0.09-30.17,9.45-37.16,17.28
		c-12.48,13.93-18.67,34.2-16.55,54.17c7.06,66.52,83.5,126.14,104.53,126.14c8.83,0,16,7.17,16,16
		C322.52,504.85,315.37,512,306.54,512L306.54,512z"/>
</g>
<g>
	<path class="st0" d="M365.91,480.7c-57.26,0-127.17-69.97-127.17-151.66c0-8.83,7.17-16,16-16c8.83,0,16,7.17,16,16
		c0,63.32,53.23,119.66,95.17,119.66c8.83,0,16,7.17,16,16C381.91,473.54,374.74,480.7,365.91,480.7z"/>
</g>
</svg>
