<?xml version="1.0" encoding="utf-8"?>
<!-- Generator: Adobe Illustrator 24.0.2, SVG Export Plug-In . SVG Version: 6.00 Build 0)  -->
<svg version="1.1" id="bold" xmlns="http://www.w3.org/2000/svg" xmlns:xlink="http://www.w3.org/1999/xlink" x="0px" y="0px"
	 viewBox="0 0 512 512" style="enable-background:new 0 0 512 512;" xml:space="preserve">
<style type="text/css">
	.st0{fill:#FFFFFF;}
</style>
<g>
	<path class="st0" d="M436.9,102.7c-3.9,0-7.7-1.4-10.8-4.2C379,55.6,318.6,32,256,32S132.9,55.6,85.9,98.6
		c-6.6,5.9-16.7,5.5-22.6-1.1c-6-6.5-5.5-16.7,1.1-22.6C117.3,26.6,185.4,0,256,0s138.7,26.6,191.7,74.9c6.5,5.9,7,16.1,1,22.6
		C445.6,101,441.3,102.7,436.9,102.7L436.9,102.7z"/>
</g>
<g>
	<path class="st0" d="M464,207.3c-5.1,0-10.2-2.5-13.3-7.1C406.3,134.1,333.5,94.6,256,94.6S105.7,134.1,61.3,200.2
		c-4.9,7.4-14.9,9.3-22.2,4.4c-7.3-4.9-9.3-14.9-4.4-22.2C85.1,107.4,167.8,62.6,256,62.6s170.9,44.8,221.3,119.8
		c4.9,7.3,3,17.3-4.4,22.2C470.2,206.4,467.1,207.3,464,207.3L464,207.3z"/>
</g>
<g>
	<path class="st0" d="M205.5,512c-4.1,0-8.2-1.6-11.4-4.7c-3.5-3.5-85.5-87.2-85.5-167.8c0-83.6,66.1-151.7,147.4-151.7
		s147.4,68,147.4,151.7c0,8.8-7.2,16-16,16s-16-7.2-16-16c0-66-51.8-119.7-115.4-119.7s-115.4,53.7-115.4,119.7
		c0,67.6,75.5,144.5,76.2,145.3c6.2,6.3,6.2,16.4-0.1,22.6C213.6,510.5,209.5,512,205.5,512z"/>
</g>
<g>
	<path class="st0" d="M306.5,512c-38.5,0-127.7-73.2-136.3-154.8c-3.1-28.8,6.1-58.3,24.5-78.9c16-17.9,37.6-27.8,60.8-27.9h0.4
		c22.7,0,44.1,8.9,60.4,25.1c17,16.9,26.4,39.6,26.4,64v10.4c0,25.7,20,46.6,44.6,46.6s44.6-20.9,44.6-46.6v-3.6
		c0-99.6-72.2-182.5-164.3-188.6c-48-3.3-94.1,13.3-129.7,46.6C101.1,238.7,80,288,80,339.5c0,42.3,14.3,83.6,40.4,116.1
		c5.5,6.9,4.4,17-2.5,22.5s-17,4.4-22.5-2.5C64.8,437.4,47.9,389,47.9,339.5c0-60.3,24.9-118.1,68.2-158.7
		c42.1-39.4,96.7-59,153.7-55.2C378.7,132.9,464,229.8,464,346.3v3.6c0,43.4-34.4,78.6-76.6,78.6s-76.6-35.3-76.6-78.6v-10.4
		c0-15.7-6-30.4-16.9-41.3c-10.2-10.2-23.7-15.8-37.8-15.8c-0.1,0-0.2,0-0.3,0c-18,0.1-30.2,9.5-37.2,17.3
		c-12.5,13.9-18.7,34.2-16.6,54.2c7,66.5,83.5,126.1,104.5,126.1c8.8,0,16,7.2,16,16C322.5,504.9,315.4,512,306.5,512L306.5,512z"/>
</g>
<g>
	<path class="st0" d="M365.9,480.7c-57.3,0-127.2-70-127.2-151.7c0-8.8,7.2-16,16-16s16,7.2,16,16c0,63.3,53.2,119.7,95.2,119.7
		c8.8,0,16,7.2,16,16C381.9,473.5,374.7,480.7,365.9,480.7z"/>
</g>
</svg>
