<?xml version="1.0" encoding="utf-8"?>
<!-- Generator: Adobe Illustrator 24.0.2, SVG Export Plug-In . SVG Version: 6.00 Build 0)  -->
<svg version="1.1" id="Capa_1" xmlns="http://www.w3.org/2000/svg" xmlns:xlink="http://www.w3.org/1999/xlink" x="0px" y="0px"
	 viewBox="0 0 512 512" style="enable-background:new 0 0 512 512;" xml:space="preserve">
<style type="text/css">
	.st0{fill:#FFFFFF;}
</style>
<g>
	<g>
		<path class="st0" d="M256,0C156.75,0,76,80.75,76,180c0,33.53,9.29,66.26,26.87,94.65l142.88,230.26
			c2.74,4.41,7.56,7.09,12.74,7.09c0.04,0,0.08,0,0.12,0c5.23-0.04,10.06-2.8,12.75-7.29l139.24-232.49
			C427.22,244.43,436,212.54,436,180C436,80.75,355.25,0,256,0z M384.87,256.82L258.27,468.19l-129.9-209.34
			c-14.63-23.63-22.57-50.9-22.57-78.85c0-82.71,67.49-150.2,150.2-150.2S406.1,97.29,406.1,180
			C406.1,207.12,398.69,233.69,384.87,256.82z"/>
	</g>
</g>
<g>
	<g>
		<path class="st0" d="M256,90c-49.63,0-90,40.37-90,90c0,49.31,39.72,90,90,90c50.9,0,90-41.23,90-90C346,130.37,305.63,90,256,90z
			 M256,240.2c-33.26,0-60.2-27.03-60.2-60.2c0-33.08,27.12-60.2,60.2-60.2s60.1,27.12,60.1,60.2
			C316.1,212.68,289.78,240.2,256,240.2z"/>
	</g>
</g>
</svg>
