<?xml version="1.0" encoding="utf-8"?>
<!-- Generator: Adobe Illustrator 24.0.2, SVG Export Plug-In . SVG Version: 6.00 Build 0)  -->
<svg version="1.1" id="Layer_1" xmlns="http://www.w3.org/2000/svg" xmlns:xlink="http://www.w3.org/1999/xlink" x="0px" y="0px"
	 viewBox="0 0 512 512" style="enable-background:new 0 0 512 512;" xml:space="preserve">
<style type="text/css">
	.st0{fill:#FFFFFF;}
</style>
<g>
	<path class="st0" d="M386,256c0,5.5-4.5,10-10,10s-10-4.5-10-10c0-5.5,4.5-10,10-10S386,250.5,386,256z"/>
	<path class="st0" d="M286,196c0,5.5-4.5,10-10,10s-10-4.5-10-10s4.5-10,10-10S286,190.5,286,196z"/>
	<path class="st0" d="M266,406c0,5.5-4.5,10-10,10s-10-4.5-10-10s4.5-10,10-10S266,400.5,266,406z"/>
	<path class="st0" d="M116,226c0,5.5-4.5,10-10,10s-10-4.5-10-10s4.5-10,10-10S116,220.5,116,226z"/>
	<path class="st0" d="M146,396c22.1,0,40-17.9,40-40s-17.9-40-40-40s-40,17.9-40,40S123.9,396,146,396z M146,336c11,0,20,9,20,20
		s-9,20-20,20s-20-9-20-20S135,336,146,336z"/>
	<path class="st0" d="M236,126c0-22.1-17.9-40-40-40s-40,17.9-40,40s17.9,40,40,40S236,148.1,236,126z M176,126c0-11,9-20,20-20
		s20,9,20,20s-9,20-20,20S176,137,176,126z"/>
	<path class="st0" d="M306,346c0,22.1,17.9,40,40,40s40-17.9,40-40s-17.9-40-40-40S306,323.9,306,346z M366,346c0,11-9,20-20,20
		s-20-9-20-20s9-20,20-20S366,335,366,346z"/>
	<path class="st0" d="M236,306c16.5,0,30-13.5,30-30s-13.5-30-30-30s-30,13.5-30,30S219.5,306,236,306z M236,266c5.5,0,10,4.5,10,10
		s-4.5,10-10,10s-10-4.5-10-10S230.5,266,236,266z"/>
	<path class="st0" d="M266,502c0,5.5-4.5,10-10,10s-10-4.5-10-10s4.5-10,10-10S266,496.5,266,502z"/>
	<path class="st0" d="M494.4,210.4c-6.5,3.3-16.9,5.6-25.4,5.6c-19.9,0-39.5-11.5-47.6-27.9c-2.2-4.4-7.2-6.5-11.8-5.1
		c-7,2.1-12.9,3.1-18.6,3.1c-35.8,0-65-29.2-65-65c0-5.7,1-11.6,3.1-18.6c1.4-4.7-0.8-9.7-5.1-11.8C307.5,82.5,296,62.9,296,43
		c0-8.5,2.3-18.9,5.6-25.4c1.4-2.9,1.4-6.2,0-9.1s-4.2-4.8-7.4-5.3C279.9,1,267.8,0,256,0C118,0,0,117.8,0,256
		c0,120,90,228.1,209.3,251.5c5.4,1.1,10.7-2.5,11.7-7.9c1.1-5.4-2.5-10.7-7.9-11.7C103,466.3,20,366.6,20,256
		C20,128.1,128.1,20,256,20c7.3,0,14.8,0.4,23,1.4c-1.9,7-3,14.7-3,21.6c0,24.3,12.8,48.4,31.9,61.3c-1.3,5.8-1.9,11.3-1.9,16.7
		c0,46.9,38.1,85,85,85c5.4,0,10.8-0.6,16.7-1.9c13,19.1,37.1,31.9,61.3,31.9c7,0,14.6-1.1,21.6-3c0.9,8.2,1.4,15.7,1.4,23
		c0,110.6-83,210.3-193.1,231.8c-5.4,1.1-9,6.3-7.9,11.7c1.1,5.4,6.3,9,11.7,7.9C422,484.1,512,376,512,256c0-11.8-1-23.9-3.2-38.2
		C507.8,211.1,500.5,207.4,494.4,210.4z"/>
</g>
</svg>
