<?xml version="1.0" encoding="utf-8"?>
<!-- Generator: Adobe Illustrator 24.0.2, SVG Export Plug-In . SVG Version: 6.00 Build 0)  -->
<svg version="1.1" id="Capa_1" xmlns="http://www.w3.org/2000/svg" xmlns:xlink="http://www.w3.org/1999/xlink" x="0px" y="0px"
	 viewBox="0 0 51.8 51.8" style="enable-background:new 0 0 51.8 51.8;" xml:space="preserve">
<style type="text/css">
	.st0{fill:#333333;}
</style>
<g>
	<g>
		<circle class="st0" cx="27.7" cy="5.6" r="4.3"/>
		<path class="st0" d="M38.3,17.1c-0.9-2-2.1-3.9-3.8-5.3c-0.2-0.1-0.4-0.2-0.6-0.3c0,0,0,0,0,0c-3-1.5-9.8-0.8-11.9-0.4l0,0.1
			c-3.1-2.1-4.8-5.8-5.4-9.5c-0.5-2.9-4.8-1.6-4.4,1.2c0.9,5.7,4.3,10.9,9.5,13.3l0,0.6c0,3.1,0,14.9,0,15l0.1,17.6
			c0,1.3,1.1,2.4,2.5,2.4c1.4,0,2.5-1.1,2.5-2.4v-17c0,0,0-0.8,0.9-0.8c0.9,0,1,0.9,1,0.9v17.1c0,1.3,1.1,2.4,2.5,2.4
			c1.4,0,2.4-1.1,2.4-2.4V33l0-2.6c2-1.3,3.5-3.1,4.6-5.1c0.6-1.1,1.6-2.7,1.6-4C39.7,19.9,38.8,18.3,38.3,17.1z M35.4,21.5
			c-0.3,0.6-0.5,1.2-0.9,1.8c-0.3,0.6-0.7,1.2-1.1,1.7l0-8.3c1,1.4,1.6,2.9,2.1,4.5C35.5,21.3,35.5,21.4,35.4,21.5z M35.6,21
			C35.6,20.8,35.6,20.8,35.6,21L35.6,21z"/>
	</g>
</g>
</svg>
